<svg xmlns="http://www.w3.org/2000/svg" xmlns:xlink="http://www.w3.org/1999/xlink" width="1080" zoomAndPan="magnify" viewBox="0 0 810 809.999993" height="1080" preserveAspectRatio="xMidYMid meet" version="1.0"><defs><clipPath id="c5d4a687c9"><path d="M 25.3125 1 L 399 1 L 399 803 L 25.3125 803 Z M 25.3125 1 " clip-rule="nonzero"/></clipPath><clipPath id="bcbdcef464"><path d="M 25.3125 1 L 385 1 L 385 800 L 25.3125 800 Z M 25.3125 1 " clip-rule="nonzero"/></clipPath></defs><g clip-path="url(#c5d4a687c9)"><path fill="#dde9fe" d="M 398.699219 573.742188 C 398.761719 600.390625 380.019531 632.914062 356.769531 646.332031 L 96.660156 796.414062 C 84.832031 803.234375 74.132812 803.796875 66.464844 799.167969 C 66.402344 799.136719 66.339844 799.105469 66.277344 799.074219 L 39.054688 783.25 C 31.515625 778.871094 26.820312 769.550781 26.789062 756.289062 L 25.289062 230.007812 C 25.226562 203.300781 44 170.808594 67.214844 157.421875 L 327.324219 7.339844 C 339.027344 0.582031 349.605469 -0.0429688 357.269531 4.398438 L 384.960938 20.472656 C 392.503906 24.882812 397.164062 34.203125 397.195312 47.429688 Z M 398.699219 573.742188 " fill-opacity="1" fill-rule="nonzero"/></g><g clip-path="url(#bcbdcef464)"><path fill="#6a95d3" d="M 384.949219 20.460938 C 377.304688 16.019531 366.703125 16.65625 355.011719 23.417969 L 94.890625 173.507812 C 71.660156 186.914062 52.902344 219.402344 52.960938 246.0625 L 54.472656 772.363281 C 54.503906 785.617188 59.183594 794.949219 66.738281 799.355469 L 39.066406 783.261719 C 31.511719 778.886719 26.832031 769.554688 26.800781 756.300781 L 25.289062 230 C 25.230469 203.308594 43.988281 170.824219 67.21875 157.417969 L 327.3125 7.324219 C 339.03125 0.59375 349.605469 -0.0429688 357.277344 4.398438 Z M 384.949219 20.460938 " fill-opacity="1" fill-rule="nonzero"/></g><path fill="#dde9fe" d="M 355.003906 23.40625 C 378.246094 9.996094 397.132812 20.75 397.207031 47.421875 L 398.699219 573.734375 C 398.773438 600.402344 380.011719 632.90625 356.773438 646.320312 L 96.667969 796.414062 C 73.429688 809.828125 54.542969 799.046875 54.46875 772.378906 L 52.972656 246.066406 C 52.898438 219.394531 71.660156 186.914062 94.902344 173.503906 Z M 355.003906 23.40625 " fill-opacity="1" fill-rule="nonzero"/><path fill="#ffffff" d="M 355.09375 49.519531 C 370.019531 40.902344 382.191406 47.859375 382.238281 64.980469 L 383.65625 564.226562 C 383.703125 581.347656 371.613281 602.304688 356.683594 610.917969 L 96.582031 761.015625 C 81.652344 769.628906 69.484375 762.675781 69.433594 745.550781 L 68.019531 246.308594 C 67.96875 229.183594 80.0625 208.230469 94.988281 199.613281 Z M 355.09375 49.519531 " fill-opacity="1" fill-rule="nonzero"/><path fill="#6a95d3" d="M 99.058594 224.980469 C 102.769531 222.839844 105.789062 224.558594 105.800781 228.804688 C 105.8125 233.066406 102.8125 238.257812 99.101562 240.398438 C 95.394531 242.539062 92.386719 240.8125 92.375 236.550781 C 92.363281 232.308594 95.351562 227.121094 99.058594 224.980469 Z M 99.058594 224.980469 " fill-opacity="1" fill-rule="nonzero"/><path fill="#6a95d3" d="M 123.113281 211.097656 C 126.820312 208.960938 129.828125 210.6875 129.839844 214.933594 C 129.851562 219.191406 126.867188 224.378906 123.15625 226.519531 C 119.449219 228.660156 116.441406 226.933594 116.429688 222.671875 C 116.417969 218.425781 119.402344 213.238281 123.113281 211.097656 Z M 123.113281 211.097656 " fill-opacity="1" fill-rule="nonzero"/><path fill="#6a95d3" d="M 147.167969 197.21875 C 150.875 195.078125 153.882812 196.804688 153.894531 201.050781 C 153.90625 205.3125 150.917969 210.496094 147.210938 212.636719 C 143.5 214.777344 140.492188 213.050781 140.480469 208.792969 C 140.46875 204.546875 143.457031 199.359375 147.167969 197.21875 Z M 147.167969 197.21875 " fill-opacity="1" fill-rule="nonzero"/><path fill="#353437" d="M 304.144531 444.363281 C 304.058594 444.363281 303.96875 444.363281 303.882812 444.363281 L 303.878906 444.363281 C 300.382812 444.328125 296.804688 443.625 293.535156 442.328125 C 284.328125 438.671875 277.410156 431.011719 273.011719 425.566406 C 264.886719 415.519531 257.757812 403.757812 250.5625 388.554688 C 242.976562 372.515625 238.578125 359.011719 236.726562 346.050781 C 235.613281 338.261719 235.5 330.746094 236.386719 323.710938 C 237.09375 318.09375 238.445312 310.847656 242.667969 304.636719 C 245.238281 300.859375 248.601562 297.632812 252.386719 295.304688 C 260.042969 290.605469 270.171875 288.851562 282.488281 290.140625 C 283.425781 290.238281 284.832031 290.386719 286.050781 291.273438 C 287.160156 292.089844 287.722656 293.242188 288.128906 294.078125 C 302.582031 323.75 312.695312 348.621094 319.953125 372.355469 C 323.734375 384.738281 327.605469 399.46875 327.65625 414.828125 C 327.6875 425.738281 325.148438 433.484375 319.894531 438.507812 C 315.953125 442.289062 310.363281 444.363281 304.144531 444.363281 Z M 303.921875 440.101562 C 309.121094 440.132812 313.75 438.496094 316.945312 435.429688 C 321.3125 431.257812 323.421875 424.523438 323.390625 414.839844 C 323.347656 400.039062 319.5625 385.6875 315.871094 373.605469 C 308.6875 350.082031 298.652344 325.40625 284.300781 295.945312 C 284.074219 295.484375 283.792969 294.90625 283.527344 294.710938 C 283.242188 294.5 282.492188 294.421875 282.050781 294.375 C 270.695312 293.203125 261.457031 294.734375 254.617188 298.9375 C 251.34375 300.945312 248.425781 303.75 246.191406 307.03125 C 242.480469 312.488281 241.261719 319.097656 240.613281 324.242188 C 239.777344 330.902344 239.886719 338.035156 240.941406 345.449219 C 242.730469 357.972656 247.015625 371.09375 254.417969 386.734375 C 261.460938 401.625 268.421875 413.109375 276.324219 422.886719 C 282.933594 431.058594 288.722656 435.832031 295.109375 438.371094 C 297.894531 439.476562 300.941406 440.074219 303.921875 440.101562 Z M 303.921875 440.101562 " fill-opacity="1" fill-rule="nonzero"/><path fill="#b0c4ff" d="M 359.679688 385.816406 C 359.679688 395.449219 352.921875 407.175781 344.535156 411.992188 L 220.722656 483.457031 C 216.4375 485.957031 212.523438 486.113281 209.769531 484.425781 L 201.542969 479.671875 C 198.820312 478.105469 197.128906 474.730469 197.097656 469.945312 L 196.878906 372.996094 C 196.878906 363.363281 203.636719 351.667969 212.023438 346.820312 L 335.835938 275.355469 C 340.0625 272.949219 343.910156 272.699219 346.664062 274.324219 L 355.046875 279.171875 C 357.769531 280.769531 359.429688 284.113281 359.460938 288.867188 Z M 359.679688 385.816406 " fill-opacity="1" fill-rule="nonzero"/><path fill="#6a95d3" d="M 355.039062 279.167969 C 352.261719 277.550781 348.4375 277.789062 344.234375 280.210938 L 220.40625 351.671875 C 212.023438 356.492188 205.253906 368.21875 205.277344 377.835938 L 205.492188 474.773438 C 205.515625 479.570312 207.203125 482.917969 209.933594 484.507812 L 201.546875 479.664062 C 198.816406 478.097656 197.128906 474.726562 197.105469 469.929688 L 196.890625 372.992188 C 196.867188 363.375 203.636719 351.671875 212.019531 346.828125 L 335.847656 275.367188 C 340.074219 272.945312 343.898438 272.707031 346.652344 274.320312 Z M 355.039062 279.167969 " fill-opacity="1" fill-rule="nonzero"/><path fill="#b0c4ff" d="M 344.222656 280.214844 C 352.609375 275.375 359.425781 279.257812 359.453125 288.871094 L 359.667969 385.804688 C 359.695312 395.4375 352.921875 407.164062 344.535156 412 L 220.710938 483.457031 C 212.339844 488.289062 205.523438 484.40625 205.496094 474.773438 L 205.28125 377.839844 C 205.253906 368.226562 212.027344 356.5 220.398438 351.671875 Z M 344.222656 280.214844 " fill-opacity="1" fill-rule="nonzero"/><path fill="#dde9fe" d="M 213.910156 478.410156 C 212.644531 478.410156 212.621094 474.90625 212.621094 474.753906 L 212.40625 377.820312 C 212.386719 370.738281 217.785156 361.402344 223.960938 357.839844 L 347.785156 286.382812 C 349.550781 285.363281 350.648438 285.253906 351.039062 285.253906 C 352.300781 285.253906 352.328125 288.746094 352.328125 288.894531 L 352.542969 385.824219 C 352.5625 392.914062 347.15625 402.265625 340.972656 405.832031 L 217.148438 477.289062 C 215.390625 478.300781 214.296875 478.410156 213.910156 478.410156 Z M 213.910156 478.410156 " fill-opacity="1" fill-rule="nonzero"/><path fill="#dde9fe" d="M 295.472656 282.238281 C 295.503906 288.960938 290.78125 297.125 284.960938 300.46875 C 281.515625 302.472656 278.484375 302.316406 276.542969 300.5 C 276.824219 300.78125 277.074219 301.03125 277.417969 301.222656 L 273.914062 299.1875 C 272.007812 298.09375 270.847656 295.746094 270.816406 292.402344 C 270.816406 289.398438 271.753906 286.117188 273.320312 283.082031 C 274.914062 280.046875 277.105469 277.296875 279.609375 275.355469 L 279.578125 262.347656 C 279.578125 261.222656 280.359375 259.875 281.332031 259.3125 C 281.800781 259 282.269531 259 282.550781 259.1875 L 286.085938 261.222656 C 285.742188 261.035156 285.304688 261.066406 284.835938 261.316406 C 283.863281 261.878906 283.050781 263.285156 283.082031 264.410156 L 283.113281 269.851562 C 284.269531 269.851562 285.460938 269.757812 286.585938 269.601562 L 286.617188 277.234375 C 286.617188 277.765625 286.460938 278.359375 286.148438 278.953125 C 285.804688 279.484375 285.335938 279.984375 284.898438 280.265625 C 280.984375 282.488281 277.824219 287.960938 277.886719 292.402344 C 277.886719 293.589844 278.109375 294.558594 278.515625 295.339844 C 279.390625 295.308594 280.390625 295.027344 281.425781 294.433594 C 285.335938 292.152344 288.464844 286.710938 288.464844 282.238281 C 288.433594 281.113281 289.246094 279.765625 290.21875 279.203125 C 290.71875 278.921875 291.15625 278.890625 291.46875 279.078125 L 294.972656 281.113281 C 295.285156 281.269531 295.472656 281.675781 295.472656 282.238281 Z M 295.472656 282.238281 " fill-opacity="1" fill-rule="nonzero"/><path fill="#b3c9e2" d="M 294.976562 281.105469 L 291.472656 279.070312 C 291.15625 278.886719 290.710938 278.914062 290.222656 279.195312 C 289.25 279.757812 288.449219 281.121094 288.453125 282.238281 C 288.464844 286.710938 285.320312 292.152344 281.429688 294.421875 C 279.472656 295.539062 277.699219 295.640625 276.417969 294.894531 L 279.921875 296.929688 C 281.203125 297.675781 282.976562 297.574219 284.933594 296.457031 C 288.824219 294.1875 291.96875 288.746094 291.957031 284.273438 C 291.953125 283.15625 292.753906 281.792969 293.726562 281.230469 C 294.214844 280.949219 294.660156 280.921875 294.976562 281.105469 Z M 294.976562 281.105469 " fill-opacity="1" fill-rule="nonzero"/><path fill="#c7d8ef" d="M 286.078125 261.230469 C 285.746094 261.03125 285.316406 261.066406 284.820312 261.332031 C 283.859375 261.894531 283.0625 263.285156 283.09375 264.410156 L 283.128906 277.363281 L 279.617188 275.34375 L 279.582031 262.359375 C 279.582031 261.230469 280.34375 259.875 281.339844 259.308594 C 281.804688 259.011719 282.265625 259.011719 282.566406 259.175781 Z M 286.078125 261.230469 " fill-opacity="1" fill-rule="nonzero"/><path fill="#dde9fe" d="M 295.484375 282.25 C 295.519531 288.976562 290.777344 297.132812 284.953125 300.476562 C 279.097656 303.859375 274.355469 301.175781 274.320312 294.449219 C 274.320312 288.417969 278.121094 281.238281 283.105469 277.371094 L 283.070312 269.84375 C 284.257812 269.84375 285.441406 269.773438 286.59375 269.597656 L 286.628906 277.230469 C 286.628906 277.753906 286.453125 278.347656 286.140625 278.941406 C 285.789062 279.496094 285.335938 279.984375 284.882812 280.265625 C 280.980469 282.496094 277.839844 287.964844 277.875 292.390625 C 277.875 296.886719 281.050781 298.664062 284.917969 296.46875 C 288.824219 294.167969 291.960938 288.734375 291.960938 284.273438 C 291.960938 283.15625 292.765625 281.796875 293.742188 281.238281 C 294.71875 280.683594 295.484375 281.101562 295.484375 282.25 Z M 295.484375 282.25 " fill-opacity="1" fill-rule="nonzero"/><path fill="#b3c9e2" d="M 273.90625 299.199219 L 277.410156 301.234375 C 275.515625 300.132812 274.339844 297.789062 274.328125 294.445312 C 274.3125 288.425781 278.117188 281.242188 283.117188 277.375 L 279.613281 275.339844 C 274.613281 279.207031 270.808594 286.390625 270.824219 292.410156 C 270.835938 295.753906 272.011719 298.097656 273.90625 299.199219 Z M 273.90625 299.199219 " fill-opacity="1" fill-rule="nonzero"/><path fill="#353437" d="M 288.128906 294.078125 C 287.722656 293.242188 287.160156 292.089844 286.050781 291.273438 C 284.832031 290.386719 283.425781 290.238281 282.488281 290.140625 C 281.5 290.035156 280.550781 289.984375 279.589844 289.921875 L 279.589844 294.261719 C 280.425781 294.320312 281.1875 294.285156 282.050781 294.375 C 282.492188 294.421875 283.242188 294.5 283.527344 294.710938 C 283.792969 294.90625 284.074219 295.484375 284.300781 295.945312 C 288.355469 304.269531 292.03125 312.179688 295.429688 319.820312 L 300.082031 319.820312 C 296.457031 311.601562 292.515625 303.082031 288.128906 294.078125 Z M 288.128906 294.078125 " fill-opacity="1" fill-rule="nonzero"/><path fill="#353437" d="M 319.953125 372.355469 C 314.269531 353.773438 306.800781 334.457031 296.90625 312.722656 L 292.21875 312.722656 C 302.433594 335.003906 310.097656 354.699219 315.871094 373.605469 C 319.5625 385.6875 323.347656 400.039062 323.390625 414.839844 C 323.421875 424.523438 321.3125 431.257812 316.945312 435.429688 C 314.152344 438.105469 310.238281 439.617188 305.832031 439.957031 L 305.832031 444.222656 C 311.359375 443.875 316.320312 441.9375 319.894531 438.507812 C 325.148438 433.484375 327.6875 425.738281 327.65625 414.828125 C 327.605469 399.46875 323.734375 384.738281 319.953125 372.355469 Z M 319.953125 372.355469 " fill-opacity="1" fill-rule="nonzero"/><path fill="#5789dc" d="M 546.730469 475.230469 L 546.730469 500.5 C 546.757812 507.160156 542.378906 513.824219 533.554688 518.890625 C 516.097656 528.992188 487.902344 528.992188 470.507812 518.890625 C 461.902344 513.886719 457.585938 507.316406 457.554688 500.78125 L 457.554688 475.417969 C 457.519531 468.757812 461.933594 462.09375 470.726562 457.027344 C 488.183594 446.957031 516.410156 446.957031 533.773438 457.027344 C 542.519531 462.121094 546.816406 468.777344 546.710938 475.433594 C 546.710938 475.367188 546.730469 475.300781 546.730469 475.230469 Z M 546.730469 475.230469 " fill-opacity="1" fill-rule="nonzero"/><path fill="#4075c1" d="M 457.554688 475.421875 L 457.554688 500.769531 C 457.574219 507.332031 461.890625 513.882812 470.515625 518.894531 C 487.902344 528.992188 516.089844 528.980469 533.566406 518.894531 C 542.363281 513.816406 546.761719 507.160156 546.742188 500.515625 L 546.742188 475.167969 C 546.761719 481.8125 542.363281 488.46875 533.566406 493.546875 C 516.089844 503.632812 487.902344 503.644531 470.515625 493.546875 C 461.890625 488.535156 457.574219 481.984375 457.554688 475.421875 Z M 457.554688 475.421875 " fill-opacity="1" fill-rule="nonzero"/><path fill="#5789dc" d="M 546.730469 475.167969 C 546.730469 476.011719 546.664062 476.855469 546.519531 477.699219 C 546.378906 478.539062 546.167969 479.375 545.886719 480.203125 C 545.605469 481.035156 545.253906 481.855469 544.832031 482.664062 C 544.410156 483.476562 543.917969 484.273438 543.363281 485.054688 C 542.808594 485.835938 542.183594 486.601562 541.5 487.347656 C 540.8125 488.097656 540.066406 488.824219 539.257812 489.527344 C 538.445312 490.234375 537.578125 490.914062 536.65625 491.570312 C 535.730469 492.226562 534.753906 492.855469 533.722656 493.457031 C 532.691406 494.054688 531.613281 494.625 530.484375 495.164062 C 529.359375 495.707031 528.1875 496.210938 526.976562 496.683594 C 525.761719 497.15625 524.511719 497.59375 523.226562 497.996094 C 521.941406 498.398438 520.621094 498.765625 519.273438 499.089844 C 517.925781 499.417969 516.554688 499.707031 515.15625 499.957031 C 513.761719 500.207031 512.347656 500.414062 510.914062 500.585938 C 509.484375 500.753906 508.039062 500.882812 506.589844 500.96875 C 505.136719 501.054688 503.679688 501.101562 502.21875 501.105469 C 500.757812 501.109375 499.300781 501.070312 497.847656 500.992188 C 496.394531 500.914062 494.953125 500.796875 493.519531 500.632812 C 492.085938 500.472656 490.671875 500.273438 489.273438 500.03125 C 487.875 499.789062 486.5 499.507812 485.152344 499.1875 C 483.800781 498.871094 482.480469 498.511719 481.191406 498.117188 C 479.902344 497.722656 478.652344 497.292969 477.4375 496.828125 C 476.222656 496.359375 475.046875 495.859375 473.917969 495.328125 C 472.789062 494.792969 471.703125 494.230469 470.671875 493.636719 C 469.636719 493.039062 468.65625 492.417969 467.726562 491.765625 C 466.800781 491.117188 465.929688 490.441406 465.113281 489.742188 C 464.300781 489.039062 463.550781 488.316406 462.859375 487.574219 C 462.167969 486.832031 461.542969 486.070312 460.980469 485.289062 C 460.421875 484.511719 459.925781 483.71875 459.5 482.910156 C 459.074219 482.101562 458.71875 481.285156 458.429688 480.457031 C 458.144531 479.628906 457.925781 478.792969 457.78125 477.953125 C 457.636719 477.109375 457.5625 476.269531 457.558594 475.421875 C 457.558594 474.578125 457.625 473.734375 457.765625 472.890625 C 457.910156 472.050781 458.121094 471.214844 458.402344 470.382812 C 458.683594 469.554688 459.035156 468.734375 459.457031 467.925781 C 459.878906 467.113281 460.367188 466.316406 460.925781 465.535156 C 461.480469 464.753906 462.101562 463.988281 462.789062 463.242188 C 463.476562 462.492188 464.222656 461.765625 465.03125 461.0625 C 465.84375 460.355469 466.707031 459.675781 467.632812 459.019531 C 468.558594 458.363281 469.535156 457.734375 470.566406 457.132812 C 471.597656 456.535156 472.675781 455.964844 473.804688 455.425781 C 474.929688 454.882812 476.101562 454.378906 477.3125 453.90625 C 478.527344 453.433594 479.777344 452.996094 481.0625 452.59375 C 482.347656 452.191406 483.667969 451.824219 485.015625 451.496094 C 486.363281 451.171875 487.734375 450.882812 489.132812 450.632812 C 490.527344 450.382812 491.941406 450.175781 493.375 450.003906 C 494.804688 449.835938 496.246094 449.707031 497.699219 449.621094 C 499.152344 449.535156 500.609375 449.488281 502.070312 449.484375 C 503.53125 449.480469 504.988281 449.515625 506.441406 449.597656 C 507.894531 449.675781 509.335938 449.792969 510.769531 449.957031 C 512.203125 450.117188 513.617188 450.316406 515.015625 450.558594 C 516.414062 450.800781 517.789062 451.082031 519.136719 451.398438 C 520.488281 451.71875 521.808594 452.078125 523.097656 452.472656 C 524.386719 452.867188 525.636719 453.296875 526.851562 453.761719 C 528.066406 454.230469 529.242188 454.730469 530.371094 455.261719 C 531.5 455.796875 532.582031 456.359375 533.617188 456.953125 C 534.652344 457.546875 535.632812 458.171875 536.5625 458.820312 C 537.488281 459.472656 538.359375 460.148438 539.175781 460.847656 C 539.988281 461.550781 540.738281 462.273438 541.429688 463.015625 C 542.121094 463.757812 542.746094 464.519531 543.308594 465.300781 C 543.867188 466.078125 544.363281 466.871094 544.789062 467.679688 C 545.214844 468.488281 545.570312 469.304688 545.859375 470.132812 C 546.144531 470.960938 546.363281 471.796875 546.507812 472.636719 C 546.652344 473.480469 546.726562 474.320312 546.730469 475.167969 Z M 546.730469 475.167969 " fill-opacity="1" fill-rule="nonzero"/><path fill="#b0c4ff" d="M 526.949219 119.925781 L 527.113281 471.089844 C 527.125 474.78125 524.683594 478.480469 519.792969 481.300781 C 510.085938 486.902344 494.421875 486.910156 484.761719 481.300781 C 479.972656 478.515625 477.570312 474.875 477.5625 471.230469 L 477.394531 119.925781 Z M 526.949219 119.925781 " fill-opacity="1" fill-rule="nonzero"/><path fill="#5789dc" d="M 268.429688 245.535156 L 268.484375 264.980469 C 268.488281 266.949219 269.78125 268.914062 272.371094 270.417969 C 277.578125 273.441406 286.046875 273.433594 291.28125 270.414062 C 293.925781 268.886719 295.246094 266.886719 295.242188 264.894531 L 295.1875 245.449219 C 295.191406 247.445312 293.871094 249.441406 291.226562 250.96875 C 285.992188 253.988281 277.523438 254 272.316406 250.972656 C 269.726562 249.46875 268.433594 247.503906 268.429688 245.535156 Z M 268.429688 245.535156 " fill-opacity="1" fill-rule="nonzero"/><path fill="#92b2f9" d="M 272.375 239.121094 C 267.140625 242.140625 267.105469 247.050781 272.316406 250.074219 C 277.523438 253.101562 285.992188 253.089844 291.226562 250.070312 C 296.480469 247.039062 296.507812 242.148438 291.296875 239.121094 C 286.089844 236.09375 277.628906 236.089844 272.375 239.121094 Z M 272.375 239.121094 " fill-opacity="1" fill-rule="nonzero"/><path fill="#b0c4ff" d="M 573.542969 105.570312 C 573.542969 111.042969 569.695312 117.703125 564.9375 120.457031 L 473.667969 173.121094 C 471.257812 174.496094 469.097656 174.65625 467.535156 173.714844 L 467.035156 173.402344 L 420.539062 146.445312 C 419.003906 145.539062 418.035156 143.628906 418.035156 140.910156 L 417.878906 82.863281 C 417.847656 75.546875 420.253906 67.507812 424.199219 60.222656 C 428.671875 51.871094 435.179688 44.460938 442.472656 40.269531 L 501.640625 6.148438 C 508.492188 2.175781 514.71875 1.800781 519.195312 4.429688 L 566.160156 31.699219 C 565.941406 31.574219 565.722656 31.449219 565.503906 31.386719 C 570.320312 33.765625 573.324219 39.394531 573.355469 47.523438 Z M 573.542969 105.570312 " fill-opacity="1" fill-rule="nonzero"/><path fill="#7ca2e5" d="M 489.449219 67.566406 C 475.820312 75.433594 464.808594 94.496094 464.851562 110.152344 L 465.019531 168.207031 C 465.03125 173.675781 468.910156 175.871094 473.671875 173.121094 L 564.9375 120.457031 C 569.699219 117.707031 573.550781 111.054688 573.535156 105.582031 L 573.371094 47.53125 C 573.324219 31.875 562.242188 25.5625 548.613281 33.429688 Z M 489.449219 67.566406 " fill-opacity="1" fill-rule="nonzero"/><path fill="#92b2f9" d="M 559.964844 111.851562 C 561.632812 110.886719 563.597656 107.507812 563.59375 105.613281 L 563.429688 47.558594 C 563.417969 44.726562 562.921875 39.980469 559.6875 39.980469 C 558.734375 39.980469 556.679688 40.246094 553.582031 42.03125 L 494.421875 76.175781 C 483.933594 82.226562 474.761719 98.089844 474.796875 110.125 L 474.9375 160.910156 Z M 559.964844 111.851562 " fill-opacity="1" fill-rule="nonzero"/><path fill="#b0c4ff" d="M 442.464844 40.269531 L 501.632812 6.140625 C 508.5 2.175781 514.710938 1.816406 519.195312 4.414062 L 566.171875 31.699219 C 561.6875 29.101562 555.476562 29.480469 548.613281 33.425781 L 489.445312 67.578125 C 482.175781 71.765625 475.671875 79.148438 471.171875 87.496094 L 424.191406 60.21875 C 428.6875 51.863281 435.195312 44.472656 442.464844 40.269531 Z M 442.464844 40.269531 " fill-opacity="1" fill-rule="nonzero"/><path fill="#92b2f9" d="M 471.171875 87.496094 C 467.238281 94.800781 464.832031 102.84375 464.859375 110.15625 L 465.019531 168.203125 C 465.019531 170.921875 465.992188 172.824219 467.539062 173.71875 L 420.539062 146.433594 C 419.011719 145.539062 418.039062 143.636719 418.039062 140.917969 L 417.882812 82.871094 C 417.855469 75.5625 420.257812 67.523438 424.191406 60.21875 Z M 471.171875 87.496094 " fill-opacity="1" fill-rule="nonzero"/><path fill="#5789dc" d="M 537.089844 93.71875 L 537.027344 113.230469 L 281.894531 261.441406 L 264.871094 251.589844 L 264.902344 232.074219 L 520.039062 83.867188 Z M 537.089844 93.71875 " fill-opacity="1" fill-rule="nonzero"/><path fill="#3168aa" d="M 281.894531 261.429688 L 537.023438 113.238281 L 537.078125 93.703125 L 281.953125 241.894531 Z M 281.894531 261.429688 " fill-opacity="1" fill-rule="nonzero"/><path fill="#5789dc" d="M 281.953125 241.894531 L 537.078125 93.703125 L 520.039062 83.875 L 264.914062 232.0625 Z M 281.953125 241.894531 " fill-opacity="1" fill-rule="nonzero"/><path fill="#4075c1" d="M 264.914062 232.0625 L 264.859375 251.597656 L 281.894531 261.429688 L 281.953125 241.894531 Z M 264.914062 232.0625 " fill-opacity="1" fill-rule="nonzero"/><path fill="#c7d8ef" d="M 576.671875 90.839844 C 576.734375 110.449219 562.96875 134.28125 545.914062 144.132812 C 537.058594 149.230469 529.082031 149.574219 523.417969 145.976562 L 508.867188 137.53125 C 503.328125 134.3125 499.855469 127.460938 499.855469 117.734375 C 499.792969 98.15625 513.59375 74.296875 530.644531 64.445312 C 539.21875 59.503906 547.011719 59.035156 552.609375 62.285156 L 567.660156 71.042969 C 573.199219 74.234375 576.640625 81.082031 576.671875 90.839844 Z M 576.671875 90.839844 " fill-opacity="1" fill-rule="nonzero"/><path fill="#dde9fe" d="M 567.660156 71.046875 C 562.046875 67.757812 554.292969 68.242188 545.703125 73.195312 C 528.632812 83.023438 514.851562 106.90625 514.921875 126.492188 C 514.953125 136.21875 518.382812 143.074219 523.921875 146.292969 L 508.875 137.542969 C 503.335938 134.324219 499.871094 127.472656 499.871094 117.746094 C 499.800781 98.15625 513.585938 74.308594 530.65625 64.445312 C 539.207031 59.496094 547 59.046875 552.609375 62.300781 Z M 567.660156 71.046875 " fill-opacity="1" fill-rule="nonzero"/><path fill="#c7d8ef" d="M 545.703125 73.183594 C 562.769531 63.335938 576.609375 71.269531 576.667969 90.847656 C 576.722656 110.449219 562.972656 134.28125 545.902344 144.128906 C 528.835938 153.980469 514.972656 146.082031 514.917969 126.480469 C 514.859375 106.902344 528.632812 83.035156 545.703125 73.183594 Z M 545.703125 73.183594 " fill-opacity="1" fill-rule="nonzero"/><path fill="#6a95d3" d="M 274.308594 359.90625 C 275.324219 359.320312 276.367188 359.042969 277.328125 359.207031 L 305.035156 364.039062 C 308.371094 364.59375 308.386719 370.226562 305.066406 374.675781 L 277.472656 411.4375 C 276.515625 412.722656 275.472656 413.65625 274.453125 414.246094 C 271.574219 415.910156 268.890625 414.808594 268.882812 411.078125 L 268.765625 369.480469 C 268.753906 365.75 271.425781 361.574219 274.308594 359.90625 Z M 274.308594 359.90625 " fill-opacity="1" fill-rule="nonzero"/><path fill="#dde9fe" d="M 357.707031 550.320312 C 357.738281 557.261719 352.828125 565.769531 346.757812 569.273438 L 300.949219 595.699219 C 297.820312 597.511719 295.003906 597.636719 293 596.386719 C 293.03125 596.449219 293.0625 596.449219 293.09375 596.480469 L 285.960938 592.320312 C 283.988281 591.164062 282.769531 588.753906 282.769531 585.285156 L 282.613281 535.464844 C 282.613281 528.488281 287.527344 519.984375 293.59375 516.480469 L 339.402344 490.054688 C 342.4375 488.269531 345.222656 488.113281 347.226562 489.273438 L 354.359375 493.433594 C 354.046875 493.242188 353.734375 493.085938 353.390625 492.992188 C 355.925781 493.839844 357.550781 496.496094 357.582031 500.5 Z M 357.707031 550.320312 " fill-opacity="1" fill-rule="nonzero"/><path fill="#dde9fe" d="M 263.246094 554.917969 L 263.371094 604.734375 C 263.402344 611.710938 258.488281 620.21875 252.417969 623.71875 L 206.609375 650.144531 C 203.449219 651.960938 200.570312 652.085938 198.570312 650.773438 L 191.621094 646.769531 C 189.652344 645.613281 188.429688 643.171875 188.429688 639.730469 L 188.273438 589.914062 C 188.273438 582.90625 193.1875 574.429688 199.257812 570.929688 L 245.066406 544.472656 C 248.101562 542.71875 250.886719 542.5625 252.886719 543.71875 L 259.613281 547.660156 C 259.738281 547.691406 259.835938 547.753906 259.960938 547.847656 C 261.960938 548.941406 263.214844 551.414062 263.246094 554.917969 Z M 263.246094 554.917969 " fill-opacity="1" fill-rule="nonzero"/><path fill="#dde9fe" d="M 168.90625 609.363281 L 169.0625 659.183594 C 169.0625 666.128906 164.152344 674.632812 158.082031 678.136719 L 112.273438 704.5625 C 109.144531 706.378906 106.328125 706.503906 104.324219 705.25 L 97.316406 701.1875 C 95.34375 700.027344 94.125 697.621094 94.09375 694.148438 L 93.96875 644.328125 C 93.9375 637.355469 98.847656 628.847656 104.917969 625.347656 L 150.726562 598.917969 C 153.792969 597.167969 156.546875 596.980469 158.550781 598.136719 L 165.714844 602.296875 C 165.558594 602.203125 165.433594 602.140625 165.277344 602.109375 C 167.5 603.140625 168.90625 605.675781 168.90625 609.363281 Z M 168.90625 609.363281 " fill-opacity="1" fill-rule="nonzero"/><path fill="#c7d8ef" d="M 150.730469 598.917969 L 104.925781 625.351562 C 98.859375 628.851562 93.941406 637.347656 93.960938 644.335938 L 94.101562 694.15625 C 94.113281 697.613281 95.335938 700.042969 97.308594 701.1875 L 104.453125 705.339844 C 102.480469 704.195312 101.257812 701.761719 101.246094 698.304688 L 101.105469 648.484375 C 101.085938 641.496094 106.003906 633 112.070312 629.5 L 157.875 603.066406 C 160.933594 601.304688 163.703125 601.140625 165.707031 602.300781 L 158.5625 598.152344 C 156.558594 596.988281 153.789062 597.152344 150.730469 598.917969 Z M 150.730469 598.917969 " fill-opacity="1" fill-rule="nonzero"/><path fill="#c7d8ef" d="M 245.058594 544.484375 L 199.253906 570.914062 C 193.1875 574.417969 188.269531 582.914062 188.289062 589.902344 L 188.429688 639.722656 C 188.441406 643.179688 189.664062 645.609375 191.632812 646.753906 L 198.78125 650.90625 C 196.808594 649.761719 195.585938 647.328125 195.574219 643.871094 L 195.433594 594.050781 C 195.414062 587.0625 200.332031 578.566406 206.402344 575.066406 L 252.203125 548.632812 C 255.261719 546.871094 258.03125 546.707031 260.035156 547.867188 L 252.890625 543.71875 C 250.886719 542.554688 248.117188 542.71875 245.058594 544.484375 Z M 245.058594 544.484375 " fill-opacity="1" fill-rule="nonzero"/><path fill="#c7d8ef" d="M 347.21875 489.285156 C 345.214844 488.121094 342.445312 488.285156 339.390625 490.050781 L 293.585938 516.480469 C 287.515625 519.984375 282.597656 528.480469 282.617188 535.46875 L 282.757812 585.289062 C 282.769531 588.746094 283.992188 591.175781 285.964844 592.320312 L 293.109375 596.472656 C 291.136719 595.324219 289.914062 592.894531 289.902344 589.4375 L 289.761719 539.617188 C 289.742188 532.628906 294.660156 524.132812 300.730469 520.632812 L 346.535156 494.199219 C 349.589844 492.4375 352.359375 492.269531 354.363281 493.433594 Z M 347.21875 489.285156 " fill-opacity="1" fill-rule="nonzero"/><path fill="#dde9fe" d="M 157.875 603.066406 C 163.945312 599.566406 168.894531 602.367188 168.914062 609.355469 L 169.054688 659.175781 C 169.074219 666.144531 164.15625 674.640625 158.089844 678.140625 L 112.285156 704.574219 C 106.21875 708.074219 101.265625 705.273438 101.246094 698.304688 L 101.105469 648.484375 C 101.085938 641.496094 106.003906 633 112.070312 629.5 Z M 157.875 603.066406 " fill-opacity="1" fill-rule="nonzero"/><path fill="#dde9fe" d="M 252.203125 548.632812 C 258.273438 545.132812 263.222656 547.933594 263.242188 554.921875 L 263.382812 604.742188 C 263.40625 611.710938 258.484375 620.207031 252.417969 623.707031 L 206.613281 650.140625 C 200.546875 653.640625 195.59375 650.839844 195.574219 643.871094 L 195.433594 594.050781 C 195.414062 587.0625 200.332031 578.566406 206.398438 575.066406 Z M 252.203125 548.632812 " fill-opacity="1" fill-rule="nonzero"/><path fill="#dde9fe" d="M 346.535156 494.199219 C 352.601562 490.699219 357.550781 493.5 357.570312 500.488281 L 357.710938 550.308594 C 357.730469 557.277344 352.8125 565.773438 346.746094 569.273438 L 300.941406 595.707031 C 294.875 599.207031 289.921875 596.40625 289.902344 589.4375 L 289.761719 539.617188 C 289.742188 532.628906 294.660156 524.132812 300.730469 520.632812 Z M 346.535156 494.199219 " fill-opacity="1" fill-rule="nonzero"/><path fill="#6a95d3" d="M 129.8125 635.5 C 132.78125 633.785156 135.191406 635.167969 135.203125 638.570312 C 135.210938 641.984375 132.816406 646.128906 129.847656 647.84375 C 126.882812 649.554688 124.476562 648.179688 124.464844 644.769531 C 124.457031 641.367188 126.847656 637.207031 129.8125 635.5 Z M 129.8125 635.5 " fill-opacity="1" fill-rule="nonzero"/><path fill="#6a95d3" d="M 144.609375 634 C 145.351562 633.574219 146.09375 633.578125 146.492188 634.210938 L 159.703125 655.035156 C 159.644531 655.253906 159.578125 655.472656 159.503906 655.691406 C 158.882812 657.390625 157.949219 658.84375 156.828125 659.9375 C 156.316406 660.398438 156.269531 660.4375 156.222656 660.476562 C 155.964844 660.679688 155.914062 660.714844 155.863281 660.75 C 155.773438 660.816406 155.726562 660.847656 155.679688 660.878906 C 155.597656 660.933594 155.546875 660.96875 155.492188 661 C 155.394531 661.0625 155.335938 661.09375 155.28125 661.128906 L 114.898438 684.433594 C 114.84375 684.46875 114.789062 684.496094 114.734375 684.527344 C 114.640625 684.578125 114.589844 684.601562 114.542969 684.625 C 113.058594 685.304688 111.902344 685.1875 111.132812 684.480469 C 110.851562 684.222656 110.625 683.882812 110.457031 683.472656 L 119.75 657.867188 C 120.148438 656.773438 120.886719 655.914062 121.628906 655.488281 C 122.371094 655.058594 123.113281 655.0625 123.519531 655.691406 L 129.386719 664.933594 C 129.785156 665.578125 130.53125 665.585938 131.273438 665.15625 C 132.019531 664.726562 132.761719 663.859375 133.164062 662.753906 L 142.734375 636.378906 C 143.132812 635.289062 143.871094 634.429688 144.609375 634 Z M 144.609375 634 " fill-opacity="1" fill-rule="nonzero"/><path fill="#6a95d3" d="M 229.289062 576.546875 C 232.675781 574.589844 235.492188 576.121094 235.5 580.0625 C 235.511719 583.957031 232.714844 588.730469 229.328125 590.683594 C 225.960938 592.628906 223.148438 591.097656 223.136719 587.203125 C 223.125 583.261719 225.921875 578.488281 229.289062 576.546875 Z M 229.289062 576.546875 " fill-opacity="1" fill-rule="nonzero"/><path fill="#6a95d3" d="M 229.34375 595.648438 C 238.542969 590.335938 246.164062 593.75 247.445312 603.199219 C 247.648438 604.640625 246.570312 606.679688 245.191406 607.476562 L 213.640625 625.695312 C 212.261719 626.492188 211.175781 625.703125 211.367188 624.035156 C 212.59375 613.136719 220.171875 600.945312 229.34375 595.648438 Z M 229.34375 595.648438 " fill-opacity="1" fill-rule="nonzero"/><path fill="#6a95d3" d="M 310.417969 558.914062 C 309.085938 558.144531 308.347656 556.617188 308.339844 554.609375 C 308.328125 550.855469 310.882812 546.441406 314.148438 544.558594 C 315.191406 543.957031 316.179688 543.667969 317.164062 543.691406 C 317.820312 543.710938 318.382812 543.921875 318.902344 544.210938 L 326.453125 533.507812 C 326.097656 532.941406 325.816406 532.300781 325.707031 531.515625 C 325.667969 531.199219 325.640625 530.875 325.640625 530.527344 C 325.632812 526.78125 328.183594 522.367188 331.449219 520.484375 C 333.210938 519.472656 334.917969 519.332031 336.257812 520.105469 C 337.589844 520.871094 338.324219 522.398438 338.332031 524.402344 C 338.34375 528.160156 335.789062 532.582031 332.519531 534.46875 C 331.523438 535.039062 330.554688 535.328125 329.632812 535.328125 C 329.585938 535.328125 329.539062 535.328125 329.496094 535.328125 C 328.9375 535.3125 328.433594 535.164062 327.972656 534.945312 L 320.371094 545.722656 C 320.652344 546.242188 320.871094 546.816406 320.964844 547.496094 C 321.007812 547.808594 321.03125 548.136719 321.03125 548.480469 C 321.035156 548.8125 321.015625 549.15625 320.972656 549.507812 C 320.894531 550.1875 320.714844 550.886719 320.488281 551.589844 L 327.992188 553.433594 C 328.433594 552.628906 328.921875 551.84375 329.511719 551.148438 C 330.355469 550.148438 331.277344 549.359375 332.253906 548.796875 C 334.011719 547.785156 335.71875 547.652344 337.058594 548.421875 C 338.390625 549.1875 339.125 550.714844 339.132812 552.71875 C 339.144531 556.476562 336.589844 560.894531 333.320312 562.78125 C 332.320312 563.355469 331.335938 563.648438 330.429688 563.648438 C 329.746094 563.648438 329.101562 563.484375 328.527344 563.152344 C 327.195312 562.386719 326.457031 560.855469 326.449219 558.847656 C 326.445312 558.515625 326.464844 558.171875 326.507812 557.824219 C 326.597656 557.019531 326.835938 556.183594 327.128906 555.355469 L 319.683594 553.523438 C 319.203125 554.46875 318.640625 555.382812 317.960938 556.183594 C 317.132812 557.167969 316.183594 557.980469 315.222656 558.539062 C 314.21875 559.117188 313.230469 559.40625 312.320312 559.40625 C 311.636719 559.40625 310.992188 559.242188 310.417969 558.914062 Z M 310.417969 558.914062 " fill-opacity="1" fill-rule="nonzero"/><path fill="#dde9fe" d="M 170.972656 312.292969 C 170.972656 319.265625 166.058594 327.773438 159.988281 331.273438 L 114.179688 357.703125 C 111.019531 359.515625 108.140625 359.640625 106.140625 358.328125 L 99.226562 354.324219 C 97.253906 353.167969 96.003906 350.726562 96.003906 347.289062 L 95.878906 297.46875 C 95.847656 290.460938 100.757812 281.988281 106.828125 278.484375 L 152.636719 252.058594 C 155.703125 250.273438 158.457031 250.117188 160.457031 251.277344 L 167.625 255.433594 C 169.59375 256.59375 170.785156 259.03125 170.816406 262.472656 Z M 170.972656 312.292969 " fill-opacity="1" fill-rule="nonzero"/><path fill="#c7d8ef" d="M 152.636719 252.042969 L 106.832031 278.476562 C 100.765625 281.976562 95.847656 290.472656 95.867188 297.460938 L 96.007812 347.28125 C 96.015625 350.738281 97.238281 353.167969 99.210938 354.316406 L 106.355469 358.464844 C 104.382812 357.320312 103.160156 354.886719 103.152344 351.429688 L 103.011719 301.609375 C 102.988281 294.625 107.910156 286.125 113.976562 282.625 L 159.78125 256.191406 C 162.835938 254.429688 165.609375 254.265625 167.609375 255.425781 L 160.464844 251.277344 C 158.464844 250.113281 155.691406 250.28125 152.636719 252.042969 Z M 152.636719 252.042969 " fill-opacity="1" fill-rule="nonzero"/><path fill="#dde9fe" d="M 159.78125 256.191406 C 165.847656 252.691406 170.800781 255.492188 170.820312 262.480469 L 170.960938 312.300781 C 170.980469 319.269531 166.0625 327.765625 159.992188 331.265625 L 114.1875 357.699219 C 108.121094 361.199219 103.171875 358.398438 103.152344 351.429688 L 103.007812 301.609375 C 102.988281 294.625 107.910156 286.125 113.976562 282.625 Z M 159.78125 256.191406 " fill-opacity="1" fill-rule="nonzero"/><path fill="#6a95d3" d="M 155.546875 292.78125 C 156.042969 292.628906 156.394531 292.9375 156.394531 293.515625 L 156.410156 297.96875 C 156.410156 298.550781 156.0625 299.261719 155.566406 299.679688 L 153.664062 301.296875 C 153.261719 301.636719 152.953125 302.171875 152.851562 302.6875 C 152.480469 304.507812 151.933594 306.347656 151.234375 308.152344 C 151.027344 308.6875 151.023438 309.195312 151.242188 309.464844 L 152.28125 310.785156 C 152.542969 311.132812 152.488281 311.808594 152.125 312.433594 L 149.398438 317.152344 C 149.1875 317.519531 148.90625 317.804688 148.625 317.96875 C 148.425781 318.085938 148.222656 318.140625 148.042969 318.117188 L 146.371094 317.894531 C 146.195312 317.871094 146 317.921875 145.800781 318.035156 C 145.601562 318.148438 145.40625 318.324219 145.226562 318.546875 C 144.007812 320.0625 142.691406 321.460938 141.300781 322.691406 C 140.902344 323.042969 140.59375 323.574219 140.496094 324.085938 L 140.050781 326.546875 C 139.941406 327.179688 139.496094 327.839844 138.988281 328.132812 L 135.117188 330.367188 C 134.605469 330.660156 134.164062 330.511719 134.046875 330.011719 L 133.585938 328.074219 C 133.488281 327.671875 133.175781 327.5 132.777344 327.609375 C 131.378906 327.984375 130.0625 328.109375 128.84375 328.003906 C 128.664062 327.988281 128.464844 328.039062 128.265625 328.152344 C 128.070312 328.269531 127.871094 328.445312 127.695312 328.671875 L 126.03125 330.820312 C 125.851562 331.050781 125.652344 331.226562 125.453125 331.339844 C 125.167969 331.503906 124.886719 331.542969 124.671875 331.421875 L 121.925781 329.859375 C 121.566406 329.65625 121.5 329.046875 121.761719 328.394531 L 122.792969 325.878906 C 123.011719 325.347656 123.003906 324.847656 122.792969 324.558594 C 122.085938 323.566406 121.527344 322.371094 121.152344 320.984375 C 121.042969 320.589844 120.738281 320.410156 120.335938 320.53125 L 118.421875 321.113281 C 117.929688 321.265625 117.574219 320.960938 117.574219 320.378906 L 117.5625 315.925781 C 117.558594 315.347656 117.910156 314.636719 118.402344 314.21875 L 120.316406 312.589844 C 120.714844 312.25 121.019531 311.714844 121.125 311.195312 C 121.492188 309.382812 122.042969 307.550781 122.738281 305.746094 C 122.949219 305.214844 122.953125 304.707031 122.730469 304.429688 L 121.691406 303.109375 C 121.425781 302.765625 121.488281 302.082031 121.84375 301.460938 L 124.574219 296.742188 C 124.789062 296.371094 125.066406 296.085938 125.351562 295.921875 C 125.550781 295.808594 125.75 295.753906 125.929688 295.773438 L 127.605469 295.996094 C 127.78125 296.023438 127.976562 295.96875 128.175781 295.855469 C 128.375 295.742188 128.574219 295.5625 128.753906 295.339844 C 129.964844 293.832031 131.28125 292.4375 132.671875 291.203125 C 133.070312 290.851562 133.382812 290.320312 133.476562 289.804688 L 133.925781 287.347656 C 134.039062 286.710938 134.480469 286.054688 134.992188 285.757812 L 138.863281 283.523438 C 139.367188 283.234375 139.816406 283.378906 139.929688 283.882812 L 140.390625 285.816406 C 140.488281 286.21875 140.796875 286.394531 141.199219 286.285156 C 142.589844 285.910156 143.910156 285.785156 145.132812 285.894531 C 145.3125 285.910156 145.507812 285.855469 145.707031 285.742188 C 145.90625 285.625 146.101562 285.449219 146.277344 285.222656 L 147.945312 283.070312 C 148.125 282.84375 148.324219 282.664062 148.523438 282.550781 C 148.804688 282.386719 149.085938 282.351562 149.300781 282.472656 L 152.042969 284.035156 C 152.410156 284.242188 152.46875 284.847656 152.207031 285.5 L 151.179688 288.007812 C 150.964844 288.539062 150.972656 289.035156 151.179688 289.324219 C 151.886719 290.324219 152.445312 291.523438 152.824219 292.910156 C 152.929688 293.308594 153.238281 293.488281 153.640625 293.363281 Z M 137.011719 316.527344 C 141.625 313.867188 145.34375 307.425781 145.328125 302.132812 C 145.3125 296.84375 141.570312 294.707031 136.957031 297.371094 C 132.351562 300.027344 128.628906 306.472656 128.644531 311.761719 C 128.65625 317.054688 132.40625 319.183594 137.011719 316.527344 " fill-opacity="1" fill-rule="nonzero"/><path fill="#46c17e" d="M 629.324219 195.242188 C 609.433594 197.648438 587.019531 224.1875 561.1875 281.984375 C 559.90625 284.84375 558.070312 287.445312 555.777344 289.578125 L 501.257812 340.175781 L 544.882812 350.941406 L 599.277344 303.359375 Z M 629.324219 195.242188 " fill-opacity="1" fill-rule="nonzero"/><path fill="#329e5e" d="M 626.1875 206.5 L 599.28125 303.363281 L 544.894531 350.960938 L 522.191406 345.339844 C 523.1875 342.460938 524.683594 339.792969 526.78125 337.515625 C 528.878906 335.238281 531.480469 333.351562 534.433594 332.425781 C 535.894531 331.964844 537.457031 331.714844 538.917969 331.183594 C 540.269531 330.648438 541.550781 329.867188 542.796875 329.082031 C 546.035156 327.019531 549.34375 324.957031 552.265625 322.429688 C 553.332031 321.542969 554.328125 320.582031 555.363281 319.65625 C 556.5 318.625 557.636719 317.664062 558.8125 316.632812 C 562.195312 313.679688 565.359375 310.480469 568.28125 307.0625 C 572.371094 302.296875 576.179688 296.535156 575.648438 290.273438 C 575.542969 289.207031 575.328125 288.140625 575.574219 287.105469 C 576.503906 283.515625 582.480469 282.554688 582.550781 278.855469 C 582.550781 277.859375 582.089844 276.898438 582.089844 275.902344 C 582.089844 273.269531 585.078125 271.8125 587.640625 271.097656 C 590.167969 270.421875 593.230469 269.425781 593.871094 266.867188 C 594.476562 264.410156 592.375 262.136719 591.949219 259.644531 C 590.84375 253.171875 600.558594 249.328125 600.773438 242.785156 C 600.84375 240.933594 600.097656 239.121094 600.417969 237.304688 C 601.238281 232.644531 608.390625 230.191406 607.429688 225.566406 C 607.179688 224.355469 606.363281 223.359375 605.9375 222.1875 C 605.046875 219.554688 606.328125 216.707031 608.035156 214.539062 C 611.558594 209.984375 619.496094 206.25 626.1875 206.5 Z M 626.1875 206.5 " fill-opacity="1" fill-rule="nonzero"/><path fill="#fc6c85" d="M 622.109375 669.777344 C 620.851562 680.585938 613.867188 687.859375 603.515625 693.054688 C 602.121094 693.753906 600.664062 694.328125 599.199219 694.867188 C 586.429688 699.546875 575.125 704.546875 574.878906 711.960938 L 574.878906 715.0625 C 574.878906 720.480469 578.609375 725.296875 583.921875 726.382812 C 589.605469 727.546875 595.769531 727.25 602.285156 725.902344 C 607.535156 724.8125 612.601562 722.917969 617.328125 720.386719 C 625.007812 716.265625 632.308594 713.46875 638.976562 712.84375 C 648.660156 712.535156 654.3125 709.023438 654.449219 701.136719 L 654.449219 671.757812 Z M 622.109375 669.777344 " fill-opacity="1" fill-rule="nonzero"/><path fill="#ea2856" d="M 654.457031 671.746094 L 654.457031 701.144531 C 654.308594 709.035156 648.671875 712.53125 638.984375 712.851562 C 632.300781 713.457031 625.015625 716.261719 617.320312 720.394531 C 612.609375 722.910156 607.546875 724.816406 602.285156 725.914062 C 595.777344 727.246094 589.617188 727.535156 583.917969 726.378906 C 578.597656 725.308594 574.867188 720.480469 574.867188 715.046875 L 574.867188 712.5625 C 576.488281 714.960938 578.945312 716.753906 581.925781 717.359375 C 587.621094 718.515625 593.78125 718.226562 600.289062 716.867188 C 605.550781 715.769531 610.613281 713.890625 615.324219 711.347656 C 623.019531 707.242188 630.308594 704.4375 636.988281 703.800781 C 646.675781 703.511719 652.316406 699.988281 652.460938 692.09375 L 652.460938 671.628906 Z M 654.457031 671.746094 " fill-opacity="1" fill-rule="nonzero"/><path fill="#fc6c85" d="M 731.9375 711.960938 L 728.054688 745.320312 C 725.5625 767.574219 716.714844 779.773438 703.582031 785.207031 C 702.664062 785.585938 701.710938 785.882812 700.738281 786.089844 C 692.636719 787.816406 687.328125 785.882812 685.949219 778.800781 C 685.441406 776.183594 685.644531 773.472656 686.285156 770.882812 L 694.457031 737.808594 C 696.59375 729.726562 697.617188 720.542969 697.613281 710.34375 Z M 731.9375 711.960938 " fill-opacity="1" fill-rule="nonzero"/><path fill="#ea2856" d="M 731.933594 711.953125 L 728.054688 745.3125 C 725.570312 767.566406 716.71875 779.765625 703.589844 785.199219 C 702.664062 785.578125 701.710938 785.894531 700.726562 786.097656 C 693.148438 787.714844 688.03125 786.125 686.265625 780.113281 C 688.234375 780.316406 690.488281 780.140625 693.035156 779.59375 C 693.988281 779.390625 694.945312 779.074219 695.867188 778.695312 C 709 773.261719 717.847656 761.0625 720.335938 738.808594 L 723.515625 711.550781 Z M 731.933594 711.953125 " fill-opacity="1" fill-rule="nonzero"/><path fill="#353437" d="M 595.433594 424.078125 C 594.707031 446.691406 595.003906 469.128906 596.464844 491.367188 C 597.320312 504.363281 598.957031 517.292969 601.3125 530.101562 L 612.496094 590.925781 C 613.207031 594.800781 614.128906 598.632812 615.113281 602.449219 C 619.089844 617.84375 620.945312 638.957031 621.957031 667.8125 C 621.417969 682.851562 654.425781 684.027344 654.964844 668.992188 L 654.964844 615.667969 C 654.964844 607.550781 654.492188 599.4375 653.632812 591.367188 C 649.898438 556.304688 649.691406 523.726562 654.964844 495.015625 C 659.175781 505.347656 662.898438 516.933594 665.0625 532.558594 C 666.71875 544.515625 668.886719 556.410156 672.125 568.039062 C 676.28125 582.953125 681.25 596.515625 686.277344 608.347656 C 696.75 633.003906 697.265625 666.324219 697.550781 708.425781 C 696.140625 722.128906 730.527344 725.664062 731.9375 711.960938 C 731.9375 711.960938 734.363281 645.246094 732.03125 621.824219 C 730.84375 609.878906 723.632812 574.988281 723.632812 574.988281 C 712.511719 536.289062 714.410156 490.375 722.410156 441.078125 C 722.410156 441.078125 644.0625 415.484375 641.851562 414.160156 C 639.640625 412.832031 595.433594 424.078125 595.433594 424.078125 Z M 595.433594 424.078125 " fill-opacity="1" fill-rule="nonzero"/><path fill="#29282b" d="M 654.425781 498.339844 C 649.710938 526.234375 650.03125 557.65625 653.644531 591.359375 C 654.484375 599.453125 654.976562 607.546875 654.976562 615.667969 L 654.976562 669 C 654.746094 675.648438 648.179688 679.117188 640.949219 679.609375 C 639.503906 678.308594 638.203125 676.832031 637.074219 675.273438 C 634.960938 672.351562 633.257812 669.085938 632.734375 665.53125 C 632.128906 661.601562 633.027344 657.582031 633.777344 653.652344 C 635.976562 642.261719 637.074219 630.496094 635.109375 619.050781 C 634.238281 613.90625 632.734375 608.847656 632.449219 603.644531 C 631.953125 594.65625 635.050781 585.75 634.734375 576.761719 C 634.414062 568.351562 631.117188 559.9375 632.734375 551.671875 C 633.605469 547.074219 636.003906 542.683594 635.570312 538.027344 C 635.222656 534.269531 633.113281 530.976562 631.953125 527.390625 C 630.566406 523.027344 630.597656 518.199219 632.101562 513.863281 C 633.75 509.066406 637.105469 504.785156 637.449219 499.699219 C 637.652344 497.070312 636.957031 494.4375 636.871094 491.78125 C 636.726562 486.691406 647.917969 462.410156 654.570312 466.429688 C 659.167969 469.203125 655.871094 490.21875 654.976562 495.015625 C 654.773438 496.117188 654.570312 497.242188 654.425781 498.339844 Z M 654.425781 498.339844 " fill-opacity="1" fill-rule="nonzero"/><path fill="#29282b" d="M 731.933594 711.953125 C 731.296875 718.167969 723.863281 720.828125 716.085938 720.597656 C 713.800781 716.40625 712.265625 711.808594 712.035156 707.070312 C 711.746094 701.777344 713.078125 696.546875 714.058594 691.34375 C 715.59375 683.078125 716.316406 674.695312 716.515625 666.28125 C 717.007812 649.027344 715.503906 631.796875 714.03125 614.570312 C 713.652344 610.292969 713.277344 605.984375 712.035156 601.851562 C 710.558594 596.96875 707.925781 592.457031 706.683594 587.484375 C 703.503906 574.738281 709.980469 561.382812 708.476562 548.347656 C 707.496094 539.734375 703.15625 531.957031 699.800781 523.980469 C 696.476562 516.003906 694.105469 506.898438 697.171875 498.804688 C 699.597656 492.414062 705.210938 487.355469 706.421875 480.621094 C 707.089844 476.777344 706.25 472.847656 705.5 469.03125 C 703.15625 457.007812 704.082031 445.53125 709.085938 436.714844 C 717.039062 439.316406 722.417969 441.078125 722.417969 441.078125 C 714.40625 490.363281 712.496094 536.292969 723.632812 575 C 723.632812 575 730.832031 609.886719 732.019531 621.824219 C 734.359375 645.238281 731.933594 711.953125 731.933594 711.953125 Z M 731.933594 711.953125 " fill-opacity="1" fill-rule="nonzero"/><path fill="#54d391" d="M 736.230469 242.882812 C 711.132812 215.558594 678.117188 200.421875 638.714844 195.125 C 626.976562 193.550781 615.207031 198.53125 608.226562 208.09375 C 593.582031 228.152344 589.949219 265.273438 600.535156 324.417969 C 601.265625 328.496094 601.527344 332.65625 601.242188 336.789062 L 594.898438 429.046875 C 594.898438 465.257812 703.261719 473.359375 721.734375 444.175781 C 724.222656 440.25 724.5 435.308594 722.839844 430.964844 L 712.554688 404 C 709.109375 395.363281 708.582031 385.839844 711.054688 376.878906 L 722.589844 335.003906 L 740.824219 261.566406 C 742.464844 254.960938 740.835938 247.894531 736.230469 242.882812 Z M 736.230469 242.882812 " fill-opacity="1" fill-rule="nonzero"/><path fill="#329e5e" d="M 700.75 214.851562 L 700.335938 215.277344 C 693.199219 226.882812 681.328125 235.546875 666.039062 240.351562 C 661.621094 241.769531 657.015625 242.148438 652.6875 241.527344 C 649.75 241.101562 646.976562 240.230469 644.402344 238.914062 C 639.136719 236.167969 627.503906 227.550781 633.652344 206.433594 L 633.785156 205.980469 L 635.109375 202.632812 C 644.617188 201.007812 654.359375 200.761719 663.984375 202.046875 C 678.464844 203.988281 683.027344 204.621094 691.929688 209.464844 C 694.417969 210.820312 697.253906 212.734375 700.75 214.851562 Z M 700.75 214.851562 " fill-opacity="1" fill-rule="nonzero"/><path fill="#f7b2b2" d="M 689.890625 193.671875 L 691.929688 209.464844 C 685.886719 219.257812 675.558594 226.890625 663.046875 230.820312 C 658.410156 232.277344 653.316406 232.25 649 230.023438 C 642.300781 226.5625 640.183594 219.785156 643.261719 209.25 L 654.039062 182.148438 L 680.121094 177.152344 L 689.9375 172.21875 L 696.433594 178.132812 Z M 689.890625 193.671875 " fill-opacity="1" fill-rule="nonzero"/><path fill="#f7b2b2" d="M 625.167969 145.050781 L 625.441406 146.035156 C 615.910156 189.417969 621.488281 211.492188 643.265625 209.226562 C 664.421875 206.492188 678.816406 194.355469 689.316406 177.695312 L 705.429688 152.957031 C 705.429688 152.957031 685.574219 128.078125 684.132812 127.339844 C 682.695312 126.601562 642.019531 128.164062 640.53125 129.539062 Z M 625.167969 145.050781 " fill-opacity="1" fill-rule="nonzero"/><path fill="#eaa7a7" d="M 705.421875 152.964844 L 689.308594 177.710938 C 678.816406 194.347656 664.417969 206.5 643.261719 209.210938 C 629.402344 210.648438 622.121094 202.238281 621.109375 184.742188 C 623.757812 196.507812 630.714844 202.023438 642.148438 200.824219 C 663.308594 198.082031 677.699219 185.960938 688.199219 169.292969 L 701.796875 148.417969 C 703.96875 151.125 705.421875 152.964844 705.421875 152.964844 Z M 705.421875 152.964844 " fill-opacity="1" fill-rule="nonzero"/><path fill="#353437" d="M 706.382812 114.722656 C 730.300781 134.609375 716.914062 174.242188 689.988281 192.992188 L 689.238281 180.945312 C 688.996094 177.105469 689.867188 173.214844 691.996094 170.03125 C 694.816406 165.8125 695.496094 162.1875 693.511719 159.289062 C 692.011719 157.101562 689.210938 156.003906 686.746094 156.921875 C 686.472656 157.023438 686.210938 157.144531 685.960938 157.285156 C 683.742188 158.519531 680.949219 158.042969 679.765625 155.777344 C 677.019531 150.527344 676 144.429688 677.140625 137.261719 L 701.8125 110.171875 Z M 706.382812 114.722656 " fill-opacity="1" fill-rule="nonzero"/><path fill="#29282b" d="M 690 192.996094 L 689.707031 188.035156 C 711.800781 167.835938 720.878906 133.464844 699.117188 115.367188 L 698.058594 114.304688 L 701.824219 110.164062 L 706.390625 114.730469 C 730.285156 134.617188 716.914062 174.234375 690 192.996094 Z M 690 192.996094 " fill-opacity="1" fill-rule="nonzero"/><path fill="#353437" d="M 673.855469 137.839844 C 665.402344 138.839844 657.609375 140.914062 650.566406 144.210938 C 644.5625 147.019531 637.898438 148.234375 631.425781 147.078125 C 623.179688 145.605469 618.230469 141.417969 618.765625 131.960938 C 619.132812 125.433594 621.933594 119.257812 626.214844 114.390625 C 643.484375 94.75 665.007812 89.316406 691.71875 96.628906 C 700.425781 99.316406 705 103.601562 706.273438 109.515625 C 707.167969 113.679688 706.035156 118.074219 703.609375 121.5625 C 698.882812 128.355469 690.710938 132.675781 681.242188 136.0625 C 678.847656 136.917969 676.371094 137.542969 673.855469 137.839844 Z M 673.855469 137.839844 " fill-opacity="1" fill-rule="nonzero"/><path fill="#29282b" d="M 703.617188 121.574219 C 698.890625 128.371094 690.71875 132.6875 681.230469 136.070312 C 678.847656 136.90625 676.359375 137.558594 673.859375 137.835938 C 665.390625 138.839844 657.605469 140.917969 650.558594 144.214844 C 644.554688 147.019531 637.90625 148.25 631.433594 147.082031 C 626.636719 146.222656 622.949219 144.441406 620.820312 141.203125 C 621.972656 141.605469 623.210938 141.921875 624.558594 142.148438 C 631.03125 143.316406 637.683594 142.085938 643.683594 139.28125 C 650.734375 135.984375 658.515625 133.90625 666.988281 132.902344 C 669.488281 132.625 671.972656 132.003906 674.355469 131.136719 C 683.84375 127.753906 692.019531 123.441406 696.742188 116.640625 C 699.167969 113.148438 700.304688 108.765625 699.390625 104.589844 C 698.886719 102.257812 697.863281 100.226562 696.308594 98.382812 C 702.0625 101.03125 705.234375 104.757812 706.265625 109.523438 C 707.183594 113.664062 706.039062 118.082031 703.617188 121.574219 Z M 703.617188 121.574219 " fill-opacity="1" fill-rule="nonzero"/><path fill="#c7d8ef" d="M 661 356.890625 L 660.683594 464.316406 C 660.652344 471.757812 658.023438 477.011719 653.769531 479.484375 L 644.507812 484.832031 C 640.191406 487.582031 634.058594 487.300781 627.300781 483.394531 L 528.519531 426.410156 C 515.4375 418.84375 504.832031 400.546875 504.863281 385.503906 L 505.175781 278.078125 C 505.207031 270.605469 507.835938 265.347656 512.089844 262.878906 L 521.695312 257.3125 C 526.015625 254.777344 531.992188 255.152344 538.5625 258.9375 L 637.34375 315.949219 C 650.421875 323.488281 661.027344 341.816406 661 356.890625 Z M 661 356.890625 " fill-opacity="1" fill-rule="nonzero"/><path fill="#c7d8ef" d="M 538.574219 258.949219 L 637.34375 315.945312 C 650.425781 323.492188 661.03125 341.816406 660.988281 356.882812 L 660.683594 464.308594 C 660.664062 471.765625 658.023438 477.007812 653.773438 479.476562 L 644.179688 485.050781 C 648.429688 482.582031 651.066406 477.335938 651.089844 469.882812 L 651.394531 362.457031 C 651.433594 347.390625 640.828125 329.066406 627.746094 321.519531 L 528.976562 264.523438 C 522.390625 260.71875 516.410156 260.363281 512.09375 262.871094 L 521.691406 257.296875 C 526.007812 254.789062 531.984375 255.144531 538.574219 258.949219 Z M 538.574219 258.949219 " fill-opacity="1" fill-rule="nonzero"/><path fill="#dde9fe" d="M 528.976562 264.523438 C 515.894531 256.972656 505.21875 263.011719 505.175781 278.078125 L 504.871094 385.503906 C 504.828125 400.53125 515.433594 418.855469 528.519531 426.402344 L 627.289062 483.398438 C 640.371094 490.949219 651.046875 484.910156 651.089844 469.882812 L 651.394531 362.457031 C 651.4375 347.390625 640.828125 329.066406 627.746094 321.519531 Z M 528.976562 264.523438 " fill-opacity="1" fill-rule="nonzero"/><path fill="#6a95d3" d="M 542.21875 344.675781 C 543.085938 344.9375 543.75 344.550781 543.976562 343.691406 C 544.796875 340.703125 546 338.117188 547.519531 335.96875 C 547.96875 335.335938 547.992188 334.269531 547.519531 333.128906 L 545.304688 327.714844 C 544.742188 326.3125 544.875 325.003906 545.660156 324.558594 L 551.574219 321.1875 C 552.035156 320.925781 552.640625 321.007812 553.253906 321.359375 C 553.683594 321.605469 554.113281 321.988281 554.5 322.480469 L 558.09375 327.117188 C 558.472656 327.609375 558.898438 327.988281 559.328125 328.234375 C 559.75 328.480469 560.175781 328.597656 560.5625 328.570312 C 563.195312 328.328125 566.046875 328.597656 569.050781 329.414062 C 569.910156 329.640625 570.582031 329.269531 570.792969 328.398438 L 571.785156 324.226562 C 572.027344 323.140625 572.996094 322.828125 574.085938 323.457031 L 582.433594 328.273438 C 583.535156 328.910156 584.484375 330.328125 584.730469 331.699219 L 585.699219 337.003906 C 585.902344 338.109375 586.570312 339.253906 587.429688 340.019531 C 590.433594 342.671875 593.269531 345.683594 595.886719 348.933594 C 596.269531 349.417969 596.699219 349.800781 597.128906 350.046875 C 597.554688 350.292969 597.980469 350.40625 598.359375 350.351562 L 601.96875 349.875 C 602.355469 349.828125 602.789062 349.945312 603.21875 350.191406 C 603.828125 350.542969 604.433594 351.164062 604.890625 351.953125 L 610.777344 362.136719 C 611.550781 363.472656 611.683594 364.941406 611.113281 365.691406 L 608.867188 368.539062 C 608.390625 369.132812 608.394531 370.226562 608.847656 371.378906 C 610.351562 375.261719 611.539062 379.21875 612.328125 383.125 C 612.558594 384.246094 613.21875 385.398438 614.078125 386.132812 L 618.199219 389.640625 C 619.265625 390.539062 620.019531 392.074219 620.015625 393.328125 L 619.988281 402.925781 C 619.984375 404.179688 619.226562 404.835938 618.15625 404.507812 L 614.027344 403.253906 C 613.167969 402.992188 612.503906 403.382812 612.269531 404.234375 C 611.460938 407.21875 610.253906 409.796875 608.734375 411.9375 C 608.277344 412.5625 608.265625 413.644531 608.734375 414.785156 L 610.957031 420.210938 C 611.523438 421.613281 611.378906 422.929688 610.605469 423.371094 L 604.679688 426.734375 C 604.21875 426.996094 603.613281 426.917969 603.003906 426.566406 C 602.574219 426.316406 602.140625 425.933594 601.753906 425.441406 L 598.160156 420.808594 C 597.785156 420.316406 597.359375 419.9375 596.929688 419.691406 C 596.503906 419.445312 596.074219 419.332031 595.683594 419.367188 C 593.058594 419.59375 590.21875 419.328125 587.207031 418.519531 C 586.34375 418.28125 585.671875 418.65625 585.464844 419.523438 L 584.46875 423.695312 C 584.21875 424.777344 583.261719 425.09375 582.160156 424.460938 L 573.8125 419.644531 C 572.722656 419.011719 571.761719 417.589844 571.523438 416.226562 L 570.558594 410.921875 C 570.355469 409.816406 569.683594 408.667969 568.828125 407.914062 C 565.828125 405.253906 562.988281 402.242188 560.363281 398.976562 C 559.976562 398.496094 559.550781 398.121094 559.125 397.875 C 558.695312 397.628906 558.269531 397.515625 557.894531 397.570312 L 554.285156 398.050781 C 553.898438 398.09375 553.464844 397.980469 553.035156 397.730469 C 552.425781 397.378906 551.820312 396.761719 551.363281 395.96875 L 545.484375 385.792969 C 544.707031 384.441406 544.582031 382.984375 545.152344 382.238281 L 547.390625 379.394531 C 547.863281 378.808594 547.851562 377.710938 547.40625 376.566406 C 545.902344 372.671875 544.714844 368.703125 543.917969 364.78125 C 543.695312 363.664062 543.035156 362.511719 542.167969 361.777344 L 538.0625 358.289062 C 537 357.386719 536.246094 355.855469 536.25 354.601562 L 536.277344 345.003906 C 536.28125 343.75 537.039062 343.089844 538.105469 343.417969 Z M 578.078125 394.621094 C 588.007812 400.351562 596.085938 395.757812 596.121094 384.34375 C 596.152344 372.941406 588.125 359.042969 578.195312 353.3125 C 568.25 347.570312 560.175781 352.179688 560.144531 363.582031 C 560.109375 374.996094 568.132812 388.882812 578.078125 394.621094 " fill-opacity="1" fill-rule="nonzero"/><path fill="#f7b2b2" d="M 639.398438 464.378906 C 637.503906 465.792969 637.664062 468.730469 639.691406 469.949219 C 648.378906 475.167969 662.175781 475.597656 676.679688 462.324219 C 682.929688 456.609375 696.917969 435.167969 696.917969 435.167969 L 673.8125 420.820312 C 664.085938 430.566406 651.429688 437.203125 636.988281 441.9375 C 634.945312 442.605469 633.953125 444.917969 634.84375 446.875 C 635.492188 448.304688 636.988281 449.152344 638.550781 448.976562 L 651.550781 447.523438 C 653.242188 447.332031 654.292969 449.257812 653.269531 450.621094 C 649.308594 455.910156 644.65625 460.464844 639.398438 464.378906 Z M 639.398438 464.378906 " fill-opacity="1" fill-rule="nonzero"/><path fill="#46c17e" d="M 703.566406 264.097656 L 734.527344 352.226562 C 735.609375 355.304688 734.789062 358.730469 732.429688 360.984375 L 670.503906 420.164062 C 662.816406 428.390625 687.582031 451.5 695.269531 443.273438 C 695.269531 443.273438 768.984375 393.777344 777.207031 364.925781 C 785.046875 337.4375 743.660156 254.402344 743.660156 254.402344 C 741.253906 243.917969 731.183594 237.046875 720.535156 238.621094 C 708.445312 240.410156 700.550781 252.257812 703.566406 264.097656 Z M 703.566406 264.097656 " fill-opacity="1" fill-rule="nonzero"/><path fill="#329e5e" d="M 743.667969 254.417969 C 743.667969 254.417969 785.050781 337.449219 777.21875 364.933594 C 768.992188 393.757812 695.273438 443.28125 695.273438 443.28125 C 691.738281 447.074219 684.550781 444.203125 678.613281 439.234375 C 687.070312 430.289062 697.847656 423.875 707.96875 416.796875 C 714.628906 412.097656 721.054688 407.082031 727.101562 401.597656 C 734.488281 394.875 741.296875 387.476562 747.402344 379.53125 C 749.945312 376.191406 752.378906 372.757812 754.132812 368.9375 C 756.222656 364.429688 757.304688 359.558594 758.277344 354.71875 C 760.644531 343.203125 762.109375 329.65625 753.957031 321.152344 C 751.347656 318.472656 747.804688 316.253906 747.035156 312.589844 C 746.328125 309.015625 748.648438 305.484375 748.671875 301.820312 C 748.738281 293.859375 738.523438 289.183594 737.359375 281.28125 C 737.050781 279.21875 737.410156 277.109375 736.808594 275.128906 C 735.941406 272.242188 733.347656 270.300781 731.058594 268.359375 C 726.167969 264.167969 721.929688 258.757812 720.796875 252.417969 C 719.898438 247.484375 721.304688 242.027344 724.675781 238.4375 C 733.675781 238.898438 741.554688 245.269531 743.667969 254.417969 Z M 743.667969 254.417969 " fill-opacity="1" fill-rule="nonzero"/></svg>